<svg xmlns="http://www.w3.org/2000/svg" width="96" height="96" viewBox="0 0 25.4 25.4">
  <path fill="#4869d2" d="M22.72 4.1255a1.225 1.225 0 0 0-1.225 1.225v2.9618a8.5682 8.5683 0 1 0-7.3494 12.962 8.518 8.518 0 0 0 6.0633-2.511 1.225 1.225 0 0 0-1.7326-1.732 6.1478 6.148 0 1 1 1.241-6.7812H16.595a1.225 1.225 0 0 0 0 2.45h6.125a1.225 1.225 0 0 0 1.2248-1.225V5.3508a1.225 1.225 0 0 0-1.225-1.225z" opacity=".75"/>
  <path fill="#ea7b21" d="M20.662 2.0676a1.225 1.225 0 0 0-1.225 1.225v2.9618a8.5682 8.5683 0 1 0-7.3493 12.962 8.518 8.518 0 0 0 6.0633-2.511 1.225 1.225 0 0 0-1.732-1.732 6.1478 6.148 0 1 1 1.2408-6.7812h-3.1223a1.225 1.225 0 0 0 0 2.45h6.1245a1.225 1.225 0 0 0 1.225-1.225V3.2925a1.225 1.225 0 0 0-1.225-1.225z" opacity=".75"/>
  <path fill="#a34d98" d="M20.662 6.1834a1.225 1.225 0 0 0-1.225 1.225V10.37a8.5682 8.5683 0 1 0-7.3493 12.962 8.518 8.518 0 0 0 6.0633-2.511 1.225 1.225 0 0 0-1.732-1.732 6.1478 6.148 0 1 1 1.2408-6.7812h-3.1223a1.225 1.225 0 0 0 0 2.4498h6.1245a1.225 1.225 0 0 0 1.225-1.225V7.4084a1.225 1.225 0 0 0-1.225-1.225z" opacity=".75"/>
  <path fill="#fe315c" d="M18.604 4.1255a1.225 1.225 0 0 0-1.2248 1.225v2.9618a8.5682 8.5683 0 1 0-7.3494 12.962 8.518 8.518 0 0 0 6.0633-2.511 1.225 1.225 0 0 0-1.732-1.732 6.1478 6.148 0 1 1 1.241-6.7812H12.48a1.225 1.225 0 0 0 0 2.45h6.1244a1.225 1.225 0 0 0 1.225-1.225V5.3508a1.225 1.225 0 0 0-1.225-1.225z" opacity=".75"/>
  <path fill="#fff" stroke="#000" stroke-width="2.0579" d="M19.808 5.0442a1.0937 1.0937 0 0 0-1.0937 1.0937v2.644a7.6502 7.6503 0 1 0-6.562 11.5732 7.6053 7.6054 0 0 0 5.4137-2.242 1.0937 1.0937 0 0 0-1.5465-1.5465 5.489 5.4892 0 1 1 1.108-6.0545h-2.7878a1.0937 1.0937 0 0 0 0 2.1874h5.4683a1.0937 1.0937 0 0 0 1.0936-1.094V6.138a1.0937 1.0937 0 0 0-1.0936-1.094z" paint-order="markers stroke fill"/>
</svg>
